<?xml version="1.0" ?><!DOCTYPE svg  PUBLIC '-//W3C//DTD SVG 1.1//EN'  'http://www.w3.org/Graphics/SVG/1.1/DTD/svg11.dtd'><svg enable-background="new 0 0 48 48" height="48px" id="Layer_3" version="1.1" viewBox="0 0 48 48" width="48px" xml:space="preserve" xmlns="http://www.w3.org/2000/svg" xmlns:xlink="http://www.w3.org/1999/xlink"><g><polygon points="17.125,19.172 10,12.047 10,12.002 0,12.002 0,16.002 8.298,16.002 14.297,22  "/><polygon points="48,14.062 38,8 38,12.002 28.266,12.002 28.266,12.031 8.299,31.998 0,31.998 0,35.998 10,35.998 10,35.953    29.952,16.002 38,16.002 38,20.062  "/><polygon points="48,34.062 38,28.062 38,31.998 29.951,31.998 23.953,26 21.125,28.828 28.295,35.998 28.312,35.98 28.312,35.998    38,35.998 38,40  "/></g></svg>